<mxfile host="app.diagrams.net" agent="Mozilla/5.0 (Macintosh; Intel Mac OS X 10_15_7) AppleWebKit/537.36 (KHTML, like Gecko) Chrome/133.0.0.0 Safari/537.36" version="26.0.16">
  <diagram name="第 1 页" id="ANqbU_2buo7pR-PzI18c">
    <mxGraphModel dx="1368" dy="885" grid="1" gridSize="10" guides="1" tooltips="1" connect="1" arrows="1" fold="1" page="1" pageScale="1" pageWidth="827" pageHeight="1169" math="0" shadow="0">
      <root>
        <mxCell id="0" />
        <mxCell id="1" parent="0" />
        <mxCell id="lSmxWSrF3-sh0lW9f_IQ-3" value="" style="edgeStyle=orthogonalEdgeStyle;rounded=0;orthogonalLoop=1;jettySize=auto;html=1;" edge="1" parent="1" source="lSmxWSrF3-sh0lW9f_IQ-1" target="lSmxWSrF3-sh0lW9f_IQ-2">
          <mxGeometry relative="1" as="geometry" />
        </mxCell>
        <mxCell id="lSmxWSrF3-sh0lW9f_IQ-1" value="项目启动，进入refresh方法" style="rounded=0;whiteSpace=wrap;html=1;" vertex="1" parent="1">
          <mxGeometry x="290" y="50" width="180" height="50" as="geometry" />
        </mxCell>
        <mxCell id="lSmxWSrF3-sh0lW9f_IQ-5" value="" style="edgeStyle=orthogonalEdgeStyle;rounded=0;orthogonalLoop=1;jettySize=auto;html=1;" edge="1" parent="1" source="lSmxWSrF3-sh0lW9f_IQ-2" target="lSmxWSrF3-sh0lW9f_IQ-4">
          <mxGeometry relative="1" as="geometry" />
        </mxCell>
        <mxCell id="lSmxWSrF3-sh0lW9f_IQ-2" value="&lt;span style=&quot;background-color: rgb(255, 255, 255); color: rgb(8, 8, 8);&quot;&gt;进入&lt;/span&gt;&lt;span style=&quot;font-family: &amp;quot;JetBrains Mono&amp;quot;, monospace; font-size: 9.8pt; background-color: rgb(255, 255, 255); color: rgb(8, 8, 8);&quot;&gt;finishBeanFactoryInitialization&lt;/span&gt;" style="whiteSpace=wrap;html=1;rounded=0;" vertex="1" parent="1">
          <mxGeometry x="212.5" y="140" width="335" height="45" as="geometry" />
        </mxCell>
        <mxCell id="lSmxWSrF3-sh0lW9f_IQ-7" value="" style="edgeStyle=orthogonalEdgeStyle;rounded=0;orthogonalLoop=1;jettySize=auto;html=1;" edge="1" parent="1" source="lSmxWSrF3-sh0lW9f_IQ-4" target="lSmxWSrF3-sh0lW9f_IQ-6">
          <mxGeometry relative="1" as="geometry" />
        </mxCell>
        <mxCell id="lSmxWSrF3-sh0lW9f_IQ-4" value="执行&lt;span style=&quot;font-family: &amp;quot;JetBrains Mono&amp;quot;, monospace; font-size: 9.8pt; background-color: rgb(255, 255, 255);&quot;&gt;beanFactory&lt;/span&gt;&lt;span style=&quot;font-family: &amp;quot;JetBrains Mono&amp;quot;, monospace; font-size: 9.8pt; background-color: rgb(255, 255, 255); color: rgb(8, 8, 8);&quot;&gt;.preInstantiateSingletons();&lt;/span&gt;" style="whiteSpace=wrap;html=1;rounded=0;" vertex="1" parent="1">
          <mxGeometry x="215" y="230" width="330" height="42.5" as="geometry" />
        </mxCell>
        <mxCell id="lSmxWSrF3-sh0lW9f_IQ-9" value="" style="edgeStyle=orthogonalEdgeStyle;rounded=0;orthogonalLoop=1;jettySize=auto;html=1;" edge="1" parent="1" source="lSmxWSrF3-sh0lW9f_IQ-6" target="lSmxWSrF3-sh0lW9f_IQ-8">
          <mxGeometry relative="1" as="geometry" />
        </mxCell>
        <mxCell id="lSmxWSrF3-sh0lW9f_IQ-6" value="循环beanName，创建bean对象" style="whiteSpace=wrap;html=1;rounded=0;" vertex="1" parent="1">
          <mxGeometry x="215" y="310" width="330" height="42.5" as="geometry" />
        </mxCell>
        <mxCell id="lSmxWSrF3-sh0lW9f_IQ-14" value="" style="edgeStyle=orthogonalEdgeStyle;rounded=0;orthogonalLoop=1;jettySize=auto;html=1;" edge="1" parent="1" source="lSmxWSrF3-sh0lW9f_IQ-8" target="lSmxWSrF3-sh0lW9f_IQ-12">
          <mxGeometry relative="1" as="geometry" />
        </mxCell>
        <mxCell id="lSmxWSrF3-sh0lW9f_IQ-8" value="执行getBean方法" style="whiteSpace=wrap;html=1;rounded=0;" vertex="1" parent="1">
          <mxGeometry x="320" y="380" width="120" height="36.25" as="geometry" />
        </mxCell>
        <mxCell id="lSmxWSrF3-sh0lW9f_IQ-16" value="" style="edgeStyle=orthogonalEdgeStyle;rounded=0;orthogonalLoop=1;jettySize=auto;html=1;" edge="1" parent="1" source="lSmxWSrF3-sh0lW9f_IQ-12" target="lSmxWSrF3-sh0lW9f_IQ-15">
          <mxGeometry relative="1" as="geometry" />
        </mxCell>
        <mxCell id="lSmxWSrF3-sh0lW9f_IQ-12" value="执行doGetBean方法" style="whiteSpace=wrap;html=1;rounded=0;" vertex="1" parent="1">
          <mxGeometry x="315" y="450" width="130" height="40" as="geometry" />
        </mxCell>
        <mxCell id="lSmxWSrF3-sh0lW9f_IQ-18" value="" style="edgeStyle=orthogonalEdgeStyle;rounded=0;orthogonalLoop=1;jettySize=auto;html=1;" edge="1" parent="1" source="lSmxWSrF3-sh0lW9f_IQ-15" target="lSmxWSrF3-sh0lW9f_IQ-17">
          <mxGeometry relative="1" as="geometry" />
        </mxCell>
        <mxCell id="lSmxWSrF3-sh0lW9f_IQ-15" value="一级缓存、&lt;span style=&quot;background-color: transparent; color: light-dark(rgb(0, 0, 0), rgb(255, 255, 255));&quot;&gt;二级缓存、&lt;/span&gt;&lt;span style=&quot;background-color: transparent; color: light-dark(rgb(0, 0, 0), rgb(255, 255, 255));&quot;&gt;三级缓存&lt;/span&gt;&lt;div&gt;顺序查找对象&lt;/div&gt;" style="whiteSpace=wrap;html=1;rounded=0;" vertex="1" parent="1">
          <mxGeometry x="290" y="520" width="180" height="50" as="geometry" />
        </mxCell>
        <mxCell id="lSmxWSrF3-sh0lW9f_IQ-20" value="" style="edgeStyle=orthogonalEdgeStyle;rounded=0;orthogonalLoop=1;jettySize=auto;html=1;" edge="1" parent="1" source="lSmxWSrF3-sh0lW9f_IQ-17" target="lSmxWSrF3-sh0lW9f_IQ-19">
          <mxGeometry relative="1" as="geometry" />
        </mxCell>
        <mxCell id="lSmxWSrF3-sh0lW9f_IQ-21" value="否" style="edgeLabel;html=1;align=center;verticalAlign=middle;resizable=0;points=[];" vertex="1" connectable="0" parent="lSmxWSrF3-sh0lW9f_IQ-20">
          <mxGeometry x="-0.5284" y="-1" relative="1" as="geometry">
            <mxPoint as="offset" />
          </mxGeometry>
        </mxCell>
        <mxCell id="lSmxWSrF3-sh0lW9f_IQ-44" value="" style="edgeStyle=orthogonalEdgeStyle;rounded=0;orthogonalLoop=1;jettySize=auto;html=1;" edge="1" parent="1" source="lSmxWSrF3-sh0lW9f_IQ-17" target="lSmxWSrF3-sh0lW9f_IQ-43">
          <mxGeometry relative="1" as="geometry" />
        </mxCell>
        <mxCell id="lSmxWSrF3-sh0lW9f_IQ-17" value="缓存中是否存在？" style="rhombus;whiteSpace=wrap;html=1;rounded=0;" vertex="1" parent="1">
          <mxGeometry x="320" y="610" width="120" height="55" as="geometry" />
        </mxCell>
        <mxCell id="lSmxWSrF3-sh0lW9f_IQ-26" value="" style="edgeStyle=orthogonalEdgeStyle;rounded=0;orthogonalLoop=1;jettySize=auto;html=1;" edge="1" parent="1" source="lSmxWSrF3-sh0lW9f_IQ-19" target="lSmxWSrF3-sh0lW9f_IQ-25">
          <mxGeometry relative="1" as="geometry" />
        </mxCell>
        <mxCell id="lSmxWSrF3-sh0lW9f_IQ-19" value="执行&lt;span style=&quot;font-family: &amp;quot;JetBrains Mono&amp;quot;, monospace; font-size: 9.8pt; background-color: rgb(255, 255, 255); color: rgb(8, 8, 8);&quot;&gt;getSingleton&lt;/span&gt;" style="whiteSpace=wrap;html=1;rounded=0;" vertex="1" parent="1">
          <mxGeometry x="315" y="700" width="130" height="40" as="geometry" />
        </mxCell>
        <mxCell id="lSmxWSrF3-sh0lW9f_IQ-28" value="" style="edgeStyle=orthogonalEdgeStyle;rounded=0;orthogonalLoop=1;jettySize=auto;html=1;" edge="1" parent="1" source="lSmxWSrF3-sh0lW9f_IQ-25" target="lSmxWSrF3-sh0lW9f_IQ-27">
          <mxGeometry relative="1" as="geometry" />
        </mxCell>
        <mxCell id="lSmxWSrF3-sh0lW9f_IQ-25" value="执行&lt;span style=&quot;font-family: &amp;quot;JetBrains Mono&amp;quot;, monospace; font-size: 9.8pt; background-color: rgb(255, 255, 255); color: rgb(8, 8, 8);&quot;&gt;createBean&lt;/span&gt;" style="whiteSpace=wrap;html=1;rounded=0;" vertex="1" parent="1">
          <mxGeometry x="315" y="770" width="130" height="40" as="geometry" />
        </mxCell>
        <mxCell id="lSmxWSrF3-sh0lW9f_IQ-30" value="" style="edgeStyle=orthogonalEdgeStyle;rounded=0;orthogonalLoop=1;jettySize=auto;html=1;" edge="1" parent="1" source="lSmxWSrF3-sh0lW9f_IQ-27" target="lSmxWSrF3-sh0lW9f_IQ-29">
          <mxGeometry relative="1" as="geometry" />
        </mxCell>
        <mxCell id="lSmxWSrF3-sh0lW9f_IQ-27" value="执行do&lt;span style=&quot;font-family: &amp;quot;JetBrains Mono&amp;quot;, monospace; font-size: 9.8pt; background-color: rgb(255, 255, 255); color: rgb(8, 8, 8);&quot;&gt;CreateBean&lt;/span&gt;" style="whiteSpace=wrap;html=1;rounded=0;" vertex="1" parent="1">
          <mxGeometry x="315" y="840" width="130" height="40" as="geometry" />
        </mxCell>
        <mxCell id="lSmxWSrF3-sh0lW9f_IQ-39" value="" style="edgeStyle=orthogonalEdgeStyle;rounded=0;orthogonalLoop=1;jettySize=auto;html=1;" edge="1" parent="1" source="lSmxWSrF3-sh0lW9f_IQ-29" target="lSmxWSrF3-sh0lW9f_IQ-38">
          <mxGeometry relative="1" as="geometry" />
        </mxCell>
        <mxCell id="lSmxWSrF3-sh0lW9f_IQ-29" value="执行createBeanInstance通过反射实例化对象" style="whiteSpace=wrap;html=1;rounded=0;" vertex="1" parent="1">
          <mxGeometry x="292.5" y="910" width="175" height="40" as="geometry" />
        </mxCell>
        <mxCell id="lSmxWSrF3-sh0lW9f_IQ-31" value="&lt;div style=&quot;background-color:#ffffff;color:#080808&quot;&gt;&lt;pre style=&quot;font-family:&#39;JetBrains Mono&#39;,monospace;font-size:9.8pt;&quot;&gt;populateBean&lt;/pre&gt;&lt;/div&gt;" style="text;whiteSpace=wrap;html=1;" vertex="1" parent="1">
          <mxGeometry x="580" y="990" width="130" height="70" as="geometry" />
        </mxCell>
        <mxCell id="lSmxWSrF3-sh0lW9f_IQ-36" value="" style="edgeStyle=orthogonalEdgeStyle;rounded=0;orthogonalLoop=1;jettySize=auto;html=1;" edge="1" parent="1" source="lSmxWSrF3-sh0lW9f_IQ-32" target="lSmxWSrF3-sh0lW9f_IQ-35">
          <mxGeometry relative="1" as="geometry" />
        </mxCell>
        <mxCell id="lSmxWSrF3-sh0lW9f_IQ-32" value="执行&lt;span style=&quot;color: rgb(8, 8, 8); font-family: &amp;quot;JetBrains Mono&amp;quot;, monospace; font-size: 9.8pt; text-align: left; background-color: transparent;&quot;&gt;populateBean&lt;/span&gt;&lt;span style=&quot;background-color: transparent; color: light-dark(rgb(0, 0, 0), rgb(255, 255, 255));&quot;&gt;给属性赋值&lt;/span&gt;" style="whiteSpace=wrap;html=1;rounded=0;" vertex="1" parent="1">
          <mxGeometry x="281.25" y="1080" width="197.5" height="50" as="geometry" />
        </mxCell>
        <mxCell id="lSmxWSrF3-sh0lW9f_IQ-33" value="A&amp;nbsp; b&lt;div&gt;B&amp;nbsp; a&lt;/div&gt;" style="rounded=0;whiteSpace=wrap;html=1;" vertex="1" parent="1">
          <mxGeometry x="30" y="40" width="120" height="60" as="geometry" />
        </mxCell>
        <mxCell id="lSmxWSrF3-sh0lW9f_IQ-37" style="edgeStyle=orthogonalEdgeStyle;rounded=0;orthogonalLoop=1;jettySize=auto;html=1;exitX=1;exitY=0.5;exitDx=0;exitDy=0;entryX=1;entryY=0.5;entryDx=0;entryDy=0;" edge="1" parent="1" source="lSmxWSrF3-sh0lW9f_IQ-35" target="lSmxWSrF3-sh0lW9f_IQ-8">
          <mxGeometry relative="1" as="geometry">
            <Array as="points">
              <mxPoint x="720" y="1180" />
              <mxPoint x="720" y="398" />
            </Array>
          </mxGeometry>
        </mxCell>
        <mxCell id="lSmxWSrF3-sh0lW9f_IQ-58" value="" style="edgeStyle=orthogonalEdgeStyle;rounded=0;orthogonalLoop=1;jettySize=auto;html=1;" edge="1" parent="1" source="lSmxWSrF3-sh0lW9f_IQ-35" target="lSmxWSrF3-sh0lW9f_IQ-57">
          <mxGeometry relative="1" as="geometry" />
        </mxCell>
        <mxCell id="lSmxWSrF3-sh0lW9f_IQ-35" value="发现有存在属性对象" style="whiteSpace=wrap;html=1;rounded=0;" vertex="1" parent="1">
          <mxGeometry x="290" y="1160" width="180" height="40" as="geometry" />
        </mxCell>
        <mxCell id="lSmxWSrF3-sh0lW9f_IQ-41" style="edgeStyle=orthogonalEdgeStyle;rounded=0;orthogonalLoop=1;jettySize=auto;html=1;exitX=0.5;exitY=1;exitDx=0;exitDy=0;" edge="1" parent="1" source="lSmxWSrF3-sh0lW9f_IQ-38" target="lSmxWSrF3-sh0lW9f_IQ-32">
          <mxGeometry relative="1" as="geometry" />
        </mxCell>
        <mxCell id="lSmxWSrF3-sh0lW9f_IQ-38" value="放入三级缓存，值是一个lambda表达式" style="rounded=0;whiteSpace=wrap;html=1;" vertex="1" parent="1">
          <mxGeometry x="320" y="980" width="120" height="60" as="geometry" />
        </mxCell>
        <mxCell id="lSmxWSrF3-sh0lW9f_IQ-46" value="" style="edgeStyle=orthogonalEdgeStyle;rounded=0;orthogonalLoop=1;jettySize=auto;html=1;" edge="1" parent="1" source="lSmxWSrF3-sh0lW9f_IQ-43" target="lSmxWSrF3-sh0lW9f_IQ-45">
          <mxGeometry relative="1" as="geometry" />
        </mxCell>
        <mxCell id="lSmxWSrF3-sh0lW9f_IQ-43" value="在三级缓存中存在" style="whiteSpace=wrap;html=1;rounded=0;" vertex="1" parent="1">
          <mxGeometry x="120" y="607.5" width="120" height="60" as="geometry" />
        </mxCell>
        <mxCell id="lSmxWSrF3-sh0lW9f_IQ-48" value="" style="edgeStyle=orthogonalEdgeStyle;rounded=0;orthogonalLoop=1;jettySize=auto;html=1;" edge="1" parent="1" source="lSmxWSrF3-sh0lW9f_IQ-45" target="lSmxWSrF3-sh0lW9f_IQ-47">
          <mxGeometry relative="1" as="geometry" />
        </mxCell>
        <mxCell id="lSmxWSrF3-sh0lW9f_IQ-45" value="执行lambda表达式，获取半成品对象" style="whiteSpace=wrap;html=1;rounded=0;" vertex="1" parent="1">
          <mxGeometry x="100" y="710" width="160" height="50" as="geometry" />
        </mxCell>
        <mxCell id="lSmxWSrF3-sh0lW9f_IQ-50" value="" style="edgeStyle=orthogonalEdgeStyle;rounded=0;orthogonalLoop=1;jettySize=auto;html=1;" edge="1" parent="1" source="lSmxWSrF3-sh0lW9f_IQ-47" target="lSmxWSrF3-sh0lW9f_IQ-49">
          <mxGeometry relative="1" as="geometry" />
        </mxCell>
        <mxCell id="lSmxWSrF3-sh0lW9f_IQ-47" value="半成品对象放入二级缓存，删除三级缓存中内容" style="whiteSpace=wrap;html=1;rounded=0;" vertex="1" parent="1">
          <mxGeometry x="105" y="810" width="150" height="45" as="geometry" />
        </mxCell>
        <mxCell id="lSmxWSrF3-sh0lW9f_IQ-52" value="" style="edgeStyle=orthogonalEdgeStyle;rounded=0;orthogonalLoop=1;jettySize=auto;html=1;" edge="1" parent="1" source="lSmxWSrF3-sh0lW9f_IQ-49" target="lSmxWSrF3-sh0lW9f_IQ-51">
          <mxGeometry relative="1" as="geometry" />
        </mxCell>
        <mxCell id="lSmxWSrF3-sh0lW9f_IQ-49" value="完成属性赋值" style="whiteSpace=wrap;html=1;rounded=0;" vertex="1" parent="1">
          <mxGeometry x="120" y="890" width="120" height="50" as="geometry" />
        </mxCell>
        <mxCell id="lSmxWSrF3-sh0lW9f_IQ-51" value="将成品对象放入一级缓存" style="whiteSpace=wrap;html=1;rounded=0;" vertex="1" parent="1">
          <mxGeometry x="120" y="970" width="120" height="60" as="geometry" />
        </mxCell>
        <mxCell id="lSmxWSrF3-sh0lW9f_IQ-57" value="完成属性赋值后，把自身对象放入一级缓存" style="whiteSpace=wrap;html=1;rounded=0;" vertex="1" parent="1">
          <mxGeometry x="250" y="1240" width="260" height="60" as="geometry" />
        </mxCell>
      </root>
    </mxGraphModel>
  </diagram>
</mxfile>
